inDegrees=yes
name=ik_S52_A04_T03
DataType=double
version=3
OpenSimVersion=4.3-2021-08-27-4bc7ad9
endheader
time	pelvis_tilt	pelvis_list	pelvis_rotation	pelvis_tx	pelvis_ty	pelvis_tz	hip_flexion_r	hip_adduction_r	hip_rotation_r	knee_angle_r	knee_angle_r_beta	ankle_angle_r	subtalar_angle_r	mtp_angle_r	hip_flexion_l	hip_adduction_l	hip_rotation_l	knee_angle_l	knee_angle_l_beta	ankle_angle_l	subtalar_angle_l	mtp_angle_l	lumbar_extension	lumbar_bending	lumbar_rotation	arm_flex_r	arm_add_r	arm_rot_r	elbow_flex_r	pro_sup_r	wrist_flex_r	wrist_dev_r	arm_flex_l	arm_add_l	arm_rot_l	elbow_flex_l	pro_sup_l	wrist_flex_l	wrist_dev_l
14.45999999999978	30.48568836053879	6.680044116567467	15.39789241325113	0	0.9399999999999999	0	-28.59050911857102	-9.291864066258197	-0.2573753596600606	0.6490024505524401	0.01132722961565177	0	0	0	-29.62070990838572	-8.442003228528852	-18.01836769768293	-0.346684344747406	-0.006050783280961344	0	0	0	0	0	0	22.3015424440811	-22.3015424440811	3.54071156791661	66.57845632223223	86.45928863438454	0	0	22.3015424440811	-22.3015424440811	3.54071156791661	66.57845632223223	86.45928863411299	0	0
14.47999999999978	30.54660860290143	6.668096064647625	15.44514680042827	0	0.9399999999999999	0	-29.32230558394253	-8.735290628247844	-0.7563430210627543	-0.05291468097414962	-0.0009235354056413114	0	0	0	-29.80492325445024	-8.356905763471332	-17.83145188276346	-0.855484315178326	-0.01493101799903069	0	0	0	0	0	0	22.30508320287512	-22.30508320287512	3.541157786145899	66.58430693730082	86.45884241617944	0	0	22.30508320287512	-22.30508320287512	3.541157786145899	66.58430693730082	86.45884241590802	0	0
14.49999999999978	30.41909832389516	6.613557145650833	15.38989758286721	0	0.9399999999999999	0	-29.23178170318729	-8.740610548484733	-0.7404084979400649	-0.4679100650791755	-0.008166571238852555	0	0	0	-29.86147198509068	-8.195825022425597	-18.16759437870518	-1.448325285467768	-0.02527804487129934	0	0	0	0	0	0	22.30975581506905	-22.30975581506905	3.54174525160281	66.59200722474179	86.45825495075435	0	0	22.30975581506905	-22.30975581506905	3.54174525160281	66.59200722474179	86.45825495048312	0	0
14.51999999999978	30.20235955096247	6.555197532216133	15.42588495103163	0	0.9399999999999999	0	-29.35241683866614	-8.491010740981638	-0.9724887668253066	-1.013441861397983	-0.01768789725893482	0	0	0	-29.89080991580732	-8.096454806887143	-18.68024461835206	-1.572455802619933	-0.02744453109780791	0	0	0	0	0	0	22.31369672563331	-22.31369672563331	3.542240204279638	66.59849394412838	86.45775999810436	0	0	22.31369672563331	-22.31369672563331	3.542240204279638	66.59849394412838	86.45775999783318	0	0
14.53999999999978	29.74299119449299	6.613794084104285	15.47055415863705	0	0.9399999999999999	0	-29.55832732201445	-8.193221949041416	-1.456607010295007	-1.87050461283772	-0.03264646416776	0	0	0	-29.92066951753359	-7.738131454623301	-19.4358086866349	-2.310906560769226	-0.04033292819136142	0	0	0	0	0	0	22.31952474599321	-22.31952474599321	3.542971871284045	66.60808207455104	86.45702833113965	0	0	22.31952474599321	-22.31952474599321	3.542971871284045	66.60808207455104	86.4570283308686	0	0
14.55999999999978	29.68126333963138	6.63741760024499	15.46151634226243	0	0.9399999999999999	0	-29.66590238164993	-8.125375005503313	-1.453996871926251	-2.259555783468942	-0.0394366880540131	0	0	0	-29.91859610717237	-7.687346091780474	-19.49661687235182	-2.722639122046191	-0.04751901702331377	0	0	0	0	0	0	22.32371055009276	-22.32371055009276	3.543498862971363	66.6149902802063	86.45650133948092	0	0	22.32371055009276	-22.32371055009276	3.543498862971363	66.6149902802063	86.45650133920999	0	0
14.57999999999978	29.48099523912408	6.654153784911092	15.53741488412893	0	0.9399999999999999	0	-29.67680130144864	-8.057779600188084	-1.579153000658281	-2.466955421702033	-0.04305649460862564	0	0	0	-29.93258594329067	-7.461434597636904	-19.41365573906565	-3.416874862229486	-0.05963571647453215	0	0	0	0	0	0	22.32697595015838	-22.32697595015838	3.543909291179433	66.62036932128525	86.45609091129514	0	0	22.32697595015838	-22.32697595015838	3.543909291179433	66.62036932128525	86.45609091102425	0	0
14.59999999999978	29.49542253170214	6.706070654903272	15.62400946155224	0	0.9399999999999999	0	-29.74640083431088	-7.929291297661739	-1.724665964031658	-2.624483241627158	-0.04580587372980782	0	0	0	-29.9438309015869	-7.388657431657136	-19.46070027129387	-3.692550020886365	-0.06444715565905246	0	0	0	0	0	0	22.33129277610037	-22.33129277610037	3.544452808184356	66.62749389517326	86.45554739431971	0	0	22.33129277610037	-22.33129277610037	3.544452808184356	66.62749389517326	86.45554739404892	0	0
14.61999999999978	29.39153490630632	6.691416475448109	15.62743847713771	0	0.9399999999999999	0	-29.78157440928909	-7.83800339846879	-1.887051229019189	-2.813538370573276	-0.04910550819770001	0	0	0	-29.94940302582282	-7.265098080251042	-19.61440402224289	-4.043662230131873	-0.07057521975433784	0	0	0	0	0	0	22.33654607238217	-22.33654607238217	3.545113955181215	66.63615974772748	86.45488624735877	0	0	22.33654607238217	-22.33654607238217	3.545113955181215	66.63615974772748	86.4548862470881	0	0
14.63999999999978	29.22053137224951	6.646603451769421	15.65218781930273	0	0.9399999999999999	0	-29.80433739674241	-7.725546742356483	-2.149499953566664	-3.094682909968625	-0.05401240608415175	0	0	0	-29.95208147024701	-7.126598072923723	-19.64803198366516	-4.408871473566818	-0.07694932351099512	0	0	0	0	0	0	22.34037947562289	-22.34037947562289	3.545596063716572	66.64247821554459	86.45440413884953	0	0	22.34037947562289	-22.34037947562289	3.545596063716572	66.64247821554459	86.45440413857895	0	0
14.65999999999978	29.09351298368343	6.661969481892296	15.66413759504082	0	0.9399999999999999	0	-29.83402476965904	-7.592180406907091	-2.288814266600367	-3.385602822455808	-0.05908991641666686	0	0	0	-29.95478582764759	-6.997828290871153	-19.5016523115723	-4.714149688020031	-0.08227743348781302	0	0	0	0	0	0	22.34461969270829	-22.34461969270829	3.546129618128171	66.64947119977499	86.45387058446688	0	0	22.34461969270829	-22.34461969270829	3.546129618128171	66.64947119977499	86.45387058419641	0	0
14.67999999999978	28.91474360958809	6.617848513077774	15.60863086138858	0	0.9399999999999999	0	-29.83537273566457	-7.479098228094385	-2.299581258486612	-3.648994988827792	-0.06368697694381867	0	0	0	-29.95657523372711	-6.864294956279769	-19.41370102491695	-5.100029744022227	-0.08901231098283145	0	0	0	0	0	0	22.34848709488667	-22.34848709488667	3.54661595020282	66.65584465348643	86.45338425241862	0	0	22.34848709488667	-22.34848709488667	3.54661595020282	66.65584465348643	86.45338425214821	0	0
